<svg id="visual" viewBox="0 0 640 800" width="640" height="800" xmlns="http://www.w3.org/2000/svg" xmlns:xlink="http://www.w3.org/1999/xlink" version="1.1"><rect x="0" y="0" width="640" height="800" fill="#007A53"></rect><path d="M0 513L15.2 501C30.3 489 60.7 465 91.2 446.5C121.7 428 152.3 415 182.8 417.2C213.3 419.3 243.7 436.7 274.2 445.7C304.7 454.7 335.3 455.3 365.8 444.2C396.3 433 426.7 410 457.2 391.7C487.7 373.3 518.3 359.7 548.8 361.8C579.3 364 609.7 382 624.8 391L640 400L640 801L624.8 801C609.7 801 579.3 801 548.8 801C518.3 801 487.7 801 457.2 801C426.7 801 396.3 801 365.8 801C335.3 801 304.7 801 274.2 801C243.7 801 213.3 801 182.8 801C152.3 801 121.7 801 91.2 801C60.7 801 30.3 801 15.2 801L0 801Z" fill="#00af78"></path><path d="M0 460L15.2 473.8C30.3 487.7 60.7 515.3 91.2 530.7C121.7 546 152.3 549 182.8 551.8C213.3 554.7 243.7 557.3 274.2 542.7C304.7 528 335.3 496 365.8 494C396.3 492 426.7 520 457.2 536C487.7 552 518.3 556 548.8 534.7C579.3 513.3 609.7 466.7 624.8 443.3L640 420L640 801L624.8 801C609.7 801 579.3 801 548.8 801C518.3 801 487.7 801 457.2 801C426.7 801 396.3 801 365.8 801C335.3 801 304.7 801 274.2 801C243.7 801 213.3 801 182.8 801C152.3 801 121.7 801 91.2 801C60.7 801 30.3 801 15.2 801L0 801Z" fill="#008f63"></path><path d="M0 615L15.2 609.5C30.3 604 60.7 593 91.2 574.2C121.7 555.3 152.3 528.7 182.8 528.5C213.3 528.3 243.7 554.7 274.2 569.8C304.7 585 335.3 589 365.8 598C396.3 607 426.7 621 457.2 605C487.7 589 518.3 543 548.8 528C579.3 513 609.7 529 624.8 537L640 545L640 801L624.8 801C609.7 801 579.3 801 548.8 801C518.3 801 487.7 801 457.2 801C426.7 801 396.3 801 365.8 801C335.3 801 304.7 801 274.2 801C243.7 801 213.3 801 182.8 801C152.3 801 121.7 801 91.2 801C60.7 801 30.3 801 15.2 801L0 801Z" fill="#00714f"></path><path d="M0 585L15.2 589C30.3 593 60.7 601 91.2 616.3C121.7 631.7 152.3 654.3 182.8 664.2C213.3 674 243.7 671 274.2 667.3C304.7 663.7 335.3 659.3 365.8 661.8C396.3 664.3 426.7 673.7 457.2 671C487.7 668.3 518.3 653.7 548.8 645.8C579.3 638 609.7 637 624.8 636.5L640 636L640 801L624.8 801C609.7 801 579.3 801 548.8 801C518.3 801 487.7 801 457.2 801C426.7 801 396.3 801 365.8 801C335.3 801 304.7 801 274.2 801C243.7 801 213.3 801 182.8 801C152.3 801 121.7 801 91.2 801C60.7 801 30.3 801 15.2 801L0 801Z" fill="#00543b"></path><path d="M0 718L15.2 718.7C30.3 719.3 60.7 720.7 91.2 715.8C121.7 711 152.3 700 182.8 699.7C213.3 699.3 243.7 709.7 274.2 709C304.7 708.3 335.3 696.7 365.8 686.5C396.3 676.3 426.7 667.7 457.2 668.3C487.7 669 518.3 679 548.8 691C579.3 703 609.7 717 624.8 724L640 731L640 801L624.8 801C609.7 801 579.3 801 548.8 801C518.3 801 487.7 801 457.2 801C426.7 801 396.3 801 365.8 801C335.3 801 304.7 801 274.2 801C243.7 801 213.3 801 182.8 801C152.3 801 121.7 801 91.2 801C60.7 801 30.3 801 15.2 801L0 801Z" fill="#003827"></path></svg>